<svg width="27" height="27" viewBox="0 0 27 27" fill="none" xmlns="http://www.w3.org/2000/svg">
<path d="M1 4.125H1.02665M1.02665 4.125H9.33333M1.02665 4.125C1 4.61622 1 5.22173 1 6.00031V21.0003C1 22.7505 1 23.6244 1.30276 24.2928C1.56907 24.8808 1.99371 25.3602 2.51639 25.6597C3.11001 26 3.8875 26 5.44019 26H9.33333M1.02665 4.125C1.05992 3.512 1.13468 3.07703 1.30276 2.70594C1.56907 2.11792 1.99371 1.6402 2.51639 1.34061C3.11058 1 3.88901 1 5.44472 1H21.5558C23.1115 1 23.8883 1 24.4825 1.34061C25.0051 1.6402 25.4312 2.11792 25.6975 2.70594C25.8656 3.07703 25.9403 3.512 25.9735 4.125M9.33333 4.125H25.9735M9.33333 4.125V26M9.33333 26H21.5599C23.1125 26 23.8889 26 24.4825 25.6597C25.0051 25.3602 25.4312 24.8808 25.6975 24.2928C26 23.625 26 22.7516 26 21.0048V5.99517C26 5.21908 26 4.61512 25.9735 4.125M25.9735 4.125H26" stroke="white" stroke-width="2" stroke-linecap="round" stroke-linejoin="round"/>
</svg>
