<svg width="25" height="25" viewBox="0 0 25 25" fill="none" xmlns="http://www.w3.org/2000/svg">
<path d="M23.6898 0.617226L24.3755 1.29548C25.3203 2.23125 25.1773 3.8901 24.0536 5.00061L9.91404 18.9876L5.33297 20.6454C4.75772 20.8546 4.19758 20.5833 4.08369 20.0418C4.0452 19.8454 4.06332 19.6422 4.13598 19.4555L5.8443 14.8848L19.9443 0.935662C21.0681 -0.174841 22.745 -0.318539 23.6898 0.617226ZM9.29696 2.00823C9.44957 2.00823 9.60069 2.03796 9.74168 2.09574C9.88268 2.15351 10.0108 2.23819 10.1187 2.34493C10.2266 2.45168 10.3122 2.57841 10.3706 2.71789C10.429 2.85736 10.4591 3.00685 10.4591 3.15782C10.4591 3.30878 10.429 3.45827 10.3706 3.59774C10.3122 3.73722 10.2266 3.86395 10.1187 3.9707C10.0108 4.07745 9.88268 4.16213 9.74168 4.2199C9.60069 4.27767 9.44957 4.3074 9.29696 4.3074H4.64848C4.03205 4.3074 3.44087 4.54964 3.00499 4.98082C2.56911 5.412 2.32424 5.9968 2.32424 6.60658V20.4016C2.32424 21.0114 2.56911 21.5962 3.00499 22.0274C3.44087 22.4586 4.03205 22.7008 4.64848 22.7008H18.5939C19.2103 22.7008 19.8015 22.4586 20.2374 22.0274C20.6733 21.5962 20.9182 21.0114 20.9182 20.4016V15.8033C20.9182 15.4984 21.0406 15.206 21.2585 14.9904C21.4765 14.7748 21.7721 14.6537 22.0803 14.6537C22.3885 14.6537 22.6841 14.7748 22.902 14.9904C23.12 15.206 23.2424 15.4984 23.2424 15.8033V20.4016C23.2424 21.6212 22.7526 22.7908 21.8809 23.6532C21.0091 24.5155 19.8268 25 18.5939 25H4.64848C3.41563 25 2.23327 24.5155 1.36151 23.6532C0.489749 22.7908 0 21.6212 0 20.4016V6.60658C0 5.38702 0.489749 4.21741 1.36151 3.35505C2.23327 2.4927 3.41563 2.00823 4.64848 2.00823H9.29696Z" fill="white"/>
</svg>
